
<?xml version="1.0" encoding="utf-8"?>
<!-- Generator: Adobe Illustrator 24.0.0, SVG Export Plug-In . SVG Version: 6.00 Build 0)  -->
<svg version="1.1"
	 id="Layer_1" inkscape:version="0.92.2 (5c3e80d, 2017-08-06)" sodipodi:docname="oreo-secondary.svg" xmlns:cc="http://creativecommons.org/ns#" xmlns:dc="http://purl.org/dc/elements/1.1/" xmlns:inkscape="http://www.inkscape.org/namespaces/inkscape" xmlns:rdf="http://www.w3.org/1999/02/22-rdf-syntax-ns#" xmlns:sodipodi="http://sodipodi.sourceforge.net/DTD/sodipodi-0.dtd" xmlns:svg="http://www.w3.org/2000/svg"
	 xmlns="http://www.w3.org/2000/svg" xmlns:xlink="http://www.w3.org/1999/xlink" x="0px" y="0px" viewBox="0 0 721 720"
	 style="enable-background:new 0 0 721 720;" xml:space="preserve">
<sodipodi:namedview  bordercolor="#666666" borderopacity="1" gridtolerance="10" guidetolerance="10" id="namedview210" inkscape:current-layer="Layer_1" inkscape:cx="360.5" inkscape:cy="360" inkscape:pageopacity="0" inkscape:pageshadow="2" inkscape:window-height="706" inkscape:window-maximized="1" inkscape:window-width="1360" inkscape:window-x="-8" inkscape:window-y="-8" inkscape:zoom="0.32777778" objecttolerance="10" pagecolor="#ffffff" showgrid="false">
	</sodipodi:namedview>
<g>
	<path d="M353.2,203.1h-39.6c-3.7,0-6.7,3-6.7,6.7v1.3c0,3.7,3,6.7,6.7,6.7h39.6v11.7h-61.1c-3.7,0-6.7,3-6.7,6.7v1.3
		c0,3.7,3,6.7,6.7,6.7h61v17.2c-41.8,1.1-80.9,11.1-110.7,28.6c-33.1,19.3-51.2,45.4-51.2,73.4c0,28.1,18.1,54.1,51.1,73.4
		c31.7,18.6,73.7,28.8,118.3,28.8c44.5,0,86.5-10.2,118.3-28.8c32.9-19.3,51.1-45.4,51.1-73.4c0-28.1-18.1-54.1-51.1-73.3
		c-30-17.6-69.1-27.7-111-28.7v-17.1h61c3.7,0,6.7-3,6.7-6.7v-1.3c0-3.7-3-6.7-6.7-6.7h-61v-11.7h39.6c3.7,0,6.7-3,6.7-6.7v-1.3
		c0-3.7-3-6.7-6.7-6.7h-39.6v-10.6c0-3.7-3-6.7-6.7-6.7h-1.3c-3.7,0-6.7,3-6.7,6.7V203.1z M515.2,363.4c0,48.1-69.4,87.3-154.7,87.3
		s-154.7-39.2-154.7-87.3c0-48.1,69.4-87.3,154.7-87.3S515.2,315.3,515.2,363.4z"/>
	<path d="M261.8,319.9c-14.3,0-28,3.8-28,35.6v18.3c0,32.7,12.2,37,28,37s28-4.3,28-37v-18.3C289.8,323.6,276,319.9,261.8,319.9z
		 M272.1,373.9c0,21.3-3.3,24.3-10.2,24.3c-6.9,0-10.2-3.1-10.2-24.3v-18.3c0-18.8,3.3-22.9,10.2-22.9s10.2,4.2,10.2,22.9V373.9z"/>
	<path d="M367.9,330.6v69.5c0,6.1,3,8.7,9.2,8.7h34c6.4,0,8.9-3.2,8.9-7.2c0-3.9-2.5-7.2-8.9-7.2H385v-23.5h23.7
		c6.4,0,8.9-3.3,8.9-7.3c0-3.9-2.5-7.2-8.9-7.2H385v-20h25.3c6.4,0,8.9-3.3,8.9-7.3c0-3.9-2.6-7.2-8.9-7.2h-33.2
		C370.8,321.9,367.9,324.6,367.9,330.6z"/>
	<path d="M457.6,410.8c15.8,0,28-4.3,28-37v-18.3c0-31.9-13.8-35.6-28-35.6c-14.3,0-28,3.8-28,35.6v18.3
		C429.6,406.5,441.8,410.8,457.6,410.8z M447.4,355.6c0-18.8,3.3-22.9,10.2-22.9s10.2,4.2,10.2,22.9v18.3c0,21.3-3.3,24.3-10.2,24.3
		c-6.9,0-10.2-3.1-10.2-24.3V355.6z"/>
	<path d="M339.5,403.9c2.1,5.7,6,7,10.1,5.6c4.1-1.3,6.5-4.6,4.3-10.4l-12-33c1.3-0.8,3.5-2.3,4.1-2.5c1.1-0.7,2.2-1.6,3.3-2.5
		c4-3.3,5.8-8.3,5.8-16.6c0-12.3-5.2-22.3-20.6-22.3H311c-6.2,0-9.2,2.6-9.2,8.7V402c0.3,4.5,4,8,8.5,8s8.2-3.5,8.5-8v-31.1h7.2h1.4
		L339.5,403.9z M325.6,358.9h-6.5v-24.6h7.4c8.1,0,10.9,3.6,10.9,12.3C337.4,356,332.5,358.8,325.6,358.9z"/>
	<path d="M389.8,669c0.3-3-1.3-6-4-7.4s-6-1.2-8.4,0.6c-2.4,1.8-3.6,5-2.9,7.9l1.6,22.4c0,4.6,3.6,8.3,8.2,8.4
		c4.5-0.7,7.6-4.9,7.1-9.5L389.8,669z"/>
	<path d="M411.1,666.3c0-3-1.7-5.8-4.5-7.1s-6-0.8-8.3,1.2s-3.2,5.2-2.4,8.1l3.3,22.2c0.3,4.5,4.2,8,8.8,7.8c4.4-1.1,7.2-5.5,6.4-10
		L411.1,666.3z"/>
	<path d="M432.5,662c-0.2-3-2.2-5.7-5-6.7c-2.8-1.1-6.1-0.4-8.2,1.8c-2.1,2.2-2.8,5.4-1.7,8.2l4.7,21.9c0.6,4.5,4.7,7.7,9.3,7.2
		c4.3-1.4,6.8-6,5.6-10.5L432.5,662z"/>
	<path d="M453.4,656.2c-0.4-3-2.5-5.6-5.4-6.5c-2.9-0.9-6.1,0-8.1,2.3s-2.5,5.6-1.2,8.4l6.2,21.6c0.9,4.5,5.3,7.4,9.8,6.5
		c4.3-1.6,6.5-6.3,4.9-10.7L453.4,656.2z"/>
	<path d="M473.8,648.9c-0.6-3-2.9-5.4-5.9-6.1s-6.1,0.4-7.9,2.9c-1.8,2.4-2.1,5.7-0.6,8.4l7.7,21.1c1.2,4.4,5.8,7,10.2,5.8
		c4.2-1.9,6-6.8,4.2-11L473.8,648.9z"/>
	<path d="M502.9,660.9l-9.1-20.5c-0.8-3-3.2-5.2-6.3-5.7c-3-0.5-6.1,0.9-7.7,3.5c-1.7,2.6-1.6,5.9,0,8.5l9.1,20.5
		c1.6,4.3,6.2,6.5,10.6,5.1c4-2.2,5.4-7.2,3.3-11.2L502.9,660.9z"/>
	<path d="M513,630.6c-1-2.9-3.6-4.9-6.6-5.1c-3-0.3-5.9,1.3-7.4,3.9c-1.5,2.7-1.3,5.9,0.5,8.4l10.6,19.8c1.9,4.2,6.7,6.1,10.9,4.3
		c3.7-2.5,4.9-7.6,2.5-11.5L513,630.6z"/>
	<path d="M543.4,638.2l-11.9-19.1c-1.3-2.7-4-4.5-7-4.5s-5.7,1.7-7,4.4s-1,5.9,0.9,8.2l11.9,19c2.1,4,7.1,5.6,11.2,3.5
		C545.2,647,545.9,641.8,543.4,638.2L543.4,638.2z"/>
	<path d="M549.2,606.5c-1.4-2.7-4.3-4.4-7.3-4.2c-3.1,0.2-5.7,2.1-6.8,5s-0.4,6.1,1.7,8.3l13.1,18.2c2.4,3.9,7.5,5.1,11.4,2.7
		c3.5-3,3.9-8.2,1-11.8L549.2,606.5z"/>
	<path d="M566,592.8c-1.6-2.6-4.5-4.1-7.6-3.7c-3,0.4-5.6,2.5-6.5,5.4s0,6.1,2.3,8.1l14.4,17.2c2.7,3.7,7.8,4.6,11.5,2
		c3.3-3.3,3.3-8.5,0.2-11.8L566,592.8z"/>
	<path d="M581.6,578c-1.8-2.5-4.8-3.7-7.8-3.1c-3,0.6-5.3,2.9-6,5.8c-0.7,3,0.4,6.1,2.8,7.9l15.6,16c2.9,3.5,8.1,4,11.6,1.1
		c3.1-3.3,2.7-8.6-0.6-11.6L581.6,578z"/>
	<path d="M613,577l-16.7-15c-1.9-2.4-5.1-3.4-8-2.6c-3,0.8-5.2,3.3-5.6,6.3c-0.5,3,0.9,6,3.4,7.7l16.7,15c3.2,3.3,8.4,3.4,11.7,0.3
		C617.2,585,616.5,579.8,613,577z"/>
	<path d="M627.5,558.9l-17.7-13.8c-2.1-2.2-5.3-3-8.2-2s-4.9,3.6-5.2,6.7c-0.3,3,1.3,6,4,7.4l17.7,13.8c3.4,3,8.6,2.8,11.7-0.5
		C632.3,566.6,631.2,561.5,627.5,558.9z"/>
	<path d="M640.7,539.7l-18.6-12.6c-2.2-2-5.5-2.6-8.3-1.4c-2.8,1.2-4.6,3.9-4.7,7c-0.1,3,1.7,5.8,4.4,7.1l18.6,12.5
		c3.6,2.8,8.8,2.2,11.7-1.3C646,547.1,644.7,542.1,640.7,539.7z"/>
	<path d="M652.6,519.7l-19.4-11.2c-2.4-1.9-5.7-2.3-8.4-0.9c-2.7,1.4-4.4,4.2-4.2,7.3c0.2,3.1,2.1,5.7,4.9,6.8l19.4,11.2
		c3.8,2.6,8.9,1.6,11.5-2.1C658.4,526.6,656.7,521.7,652.6,519.7z"/>
	<path d="M663,499l-20.2-9.8c-2.5-1.7-5.8-1.9-8.4-0.3c-2.6,1.6-4.1,4.5-3.7,7.6c0.4,3,2.5,5.6,5.4,6.5l20.2,9.8
		c3.9,2.3,9,1,11.3-2.9C669.3,505.6,667.2,500.8,663,499z"/>
	<path d="M672,477.5l-20.8-8.4c-2.6-1.6-5.9-1.5-8.4,0.3s-3.7,4.8-3.2,7.8c0.6,3,2.9,5.4,5.8,6.1l20.8,8.4c4.1,2,9.1,0.4,11.1-3.7
		C678.7,483.7,676.3,479,672,477.5z"/>
	<path d="M679.4,455.5l-21.3-7c-2.7-1.3-6-1-8.3,0.9c-2.4,1.9-3.4,5-2.6,8c0.8,2.9,3.2,5.2,6.2,5.7l21.3,6.9
		c4.2,1.7,9.1-0.3,10.9-4.4C686.5,461.2,683.8,456.7,679.4,455.5z"/>
	<path d="M685.3,433.1l-21.8-5.5c-2.8-1.2-6.1-0.6-8.3,1.4c-2.2,2.1-3,5.3-2,8.2c1,2.9,3.6,4.9,6.7,5.2l21.8,5.4
		c4.3,1.4,9-0.9,10.5-5.2C692.8,438.1,689.8,433.9,685.3,433.1z"/>
	<path d="M689.6,410.2l-22.1-3.9c-2.9-1-6.1-0.2-8.2,2c-2.1,2.2-2.7,5.5-1.5,8.3s3.9,4.7,7,4.7l22.1,3.9c4.4,1.1,8.9-1.5,10.1-5.9
		C697.5,414.8,694.2,410.8,689.6,410.2z"/>
	<path d="M692.4,387.3l-0.1-0.2l-22.3-2.4c-3-0.8-6.1,0.2-8.1,2.6c-1.9,2.4-2.3,5.7-0.9,8.4c1.4,2.7,4.3,4.4,7.4,4.2l22.3,2.4
		c4.5,0.9,8.9-2,9.8-6.5C700.6,391.2,697,387.4,692.4,387.3z"/>
	<path d="M693.4,363.9l-22.4-0.8c-3-0.6-6.1,0.7-7.8,3.2c-1.8,2.5-1.9,5.8-0.3,8.4c1.6,2.6,4.5,4.1,7.6,3.7l22.4,0.8
		c4.5,0.5,8.6-2.7,9.2-7.3C701.8,367.4,698,363.8,693.4,363.9z"/>
	<path d="M692.8,340.7l-22.4,0.8c-3-0.4-6,1.1-7.6,3.7c-1.6,2.6-1.4,5.9,0.3,8.4c1.8,2.5,4.8,3.7,7.8,3.2l22.4-0.8
		c4.6,0.2,8.4-3.4,8.7-7.9C701.5,343.6,697.4,340.3,692.8,340.7z"/>
	<path d="M690.6,317.7l0.1-0.2l-22.3,2.4c-3-0.1-5.9,1.5-7.3,4.2c-1.4,2.7-1,6,0.9,8.4c1.9,2.4,5,3.4,8,2.6l22.3-2.4
		c4.5-0.2,8.1-3.9,8.1-8.5C699.5,319.7,695.1,316.8,690.6,317.7z"/>
	<path d="M686.9,294.6l-22.1,3.9c-3.1,0-5.8,1.9-7,4.7c-1.2,2.8-0.6,6.1,1.5,8.3s5.3,3,8.2,2l22.1-3.9c4.5-0.4,7.9-4.4,7.5-9
		C695.9,296.3,691.4,293.6,686.9,294.6z"/>
	<path d="M681.6,272l-21.8,5.4c-3,0.3-5.7,2.3-6.6,5.2s-0.2,6.1,2.1,8.2c2.2,2.1,5.5,2.7,8.3,1.4l21.8-5.4c4.5-0.8,7.5-5,6.8-9.5
		C690.7,273,686,270.7,681.6,272z"/>
	<path d="M674.7,249.8l-21.3,7c-3.1,0.4-5.6,2.6-6.4,5.6c-0.8,3,0.2,6.2,2.7,8.1c2.4,1.9,5.8,2.2,8.5,0.7l21.3-6.9
		c4.3-1.1,7.1-5.4,6.1-9.8c-1.8-4.2-6.6-6.2-10.9-4.5L674.7,249.8z"/>
	<path d="M645.4,236.6c-3,0.7-5.3,3.1-5.8,6.1c-0.6,3,0.7,6.1,3.2,7.8c2.5,1.8,5.8,1.9,8.4,0.3l20.8-8.4c4.3-1.4,6.7-6,5.5-10.3
		c-2.2-4.1-7.1-5.8-11.3-3.9L645.4,236.6z"/>
	<path d="M636.1,217c-2.9,0.9-5,3.4-5.4,6.5c-0.4,3.1,1.1,6,3.7,7.6c2.6,1.6,5.9,1.5,8.4-0.3L663,221c4.2-1.7,6.3-6.5,4.7-10.8
		c-2.4-3.9-7.5-5.2-11.4-3L636.1,217z"/>
	<path d="M625.5,198.1c-2.8,1.1-4.8,3.8-4.9,6.8s1.5,5.9,4.2,7.3c2.7,1.4,6,1.1,8.4-0.8l19.4-11.2c4.1-2,5.9-6.9,4-11
		c-2.7-3.8-7.8-4.8-11.7-2.3L625.5,198.1z"/>
	<path d="M609.4,187.2c0.1,3,1.9,5.7,4.6,6.9c2.7,1.2,5.9,0.7,8.2-1.2l18.6-12.6c4-2.2,5.4-7.3,3.3-11.3c-2.9-3.6-8.1-4.2-11.7-1.3
		l-0.2-0.2l-18.6,12.6C610.9,181.5,609.3,184.2,609.4,187.2z"/>
	<path d="M596.5,170.2c0.2,3,2.3,5.7,5.2,6.7s6.1,0.2,8.2-2l17.7-13.8c3.8-2.6,4.8-7.6,2.4-11.5c-3.1-3.3-8.4-3.6-11.8-0.6
		l-17.7,13.8C597.8,164.3,596.3,167.2,596.5,170.2z"/>
	<path d="M582.6,154.3c0.5,3,2.7,5.5,5.6,6.3c3,0.8,6.1-0.2,8-2.6l16.7-15c3.6-2.8,4.3-8,1.5-11.6c-3.3-3.2-8.5-3-11.7,0.2l-16.7,15
		C583.4,148.3,582.1,151.3,582.6,154.3z"/>
	<path d="M567.7,139.2c0.7,2.9,3.1,5.3,6.1,5.9c3,0.6,6.1-0.7,7.8-3.2l15.6-16.1c3.4-3.1,3.7-8.2,0.8-11.7
		c-3.6-2.8-8.8-2.3-11.8,1.1l-15.6,16.1C568.2,133.1,567,136.3,567.7,139.2z"/>
	<path d="M551.8,125.4c0.9,2.9,3.4,5.1,6.5,5.5c3.1,0.4,6.1-1.1,7.6-3.8l14.4-17.2c3.2-3.2,3.2-8.5,0-11.7c-3.8-2.6-9-1.8-11.7,1.9
		l-14.4,17.2C551.8,119.3,550.9,122.5,551.8,125.4z"/>
	<path d="M535.2,112.6c1.1,2.9,3.8,4.8,6.8,5c3.1,0.2,5.9-1.5,7.3-4.2l13.1-18.1c2.9-3.5,2.5-8.7-0.9-11.7c-3.9-2.4-9-1.2-11.5,2.6
		l-13.1,18.1C534.7,106.5,534.1,109.7,535.2,112.6z"/>
	<path d="M517.6,100.9c1.3,2.7,4,4.4,7,4.4s5.7-1.8,7-4.5l11.8-19.1c2.7-3.7,1.9-8.8-1.7-11.6c-4.1-2.1-9.1-0.5-11.3,3.6l-11.9,19
		C516.6,95,516.3,98.2,517.6,100.9z"/>
	<path d="M498.9,90.7c1.5,2.7,4.4,4.2,7.4,3.9c3-0.3,5.6-2.3,6.6-5.1l10.5-19.8c2.4-3.9,1.3-8.9-2.5-11.4c-4.1-1.8-9,0.1-10.9,4.2
		l-10.6,19.8C497.6,84.7,497.4,88,498.9,90.7z"/>
	<path d="M479.7,81.7c1.7,2.6,4.7,3.9,7.7,3.4s5.5-2.7,6.3-5.6l9.1-20.5c2.1-4,0.7-9-3.3-11.2c-4.2-1.5-8.9,0.7-10.6,5l-9.2,20.5
		C478,75.9,478,79.2,479.7,81.7z"/>
	<path d="M460.1,74.1c1.8,2.4,4.9,3.6,7.9,2.9s5.3-3.1,5.9-6.1l7.7-21.1c1.8-4.2,0-9-4.1-11c-4.5-1.1-9,1.4-10.3,5.8l-7.7,21.1
		C458,68.4,458.3,71.7,460.1,74.1z"/>
	<path d="M448.1,70.2c2.9-0.9,5.1-3.4,5.4-6.5l6.2-21.6c1.5-4.3-0.6-9.1-4.9-10.7c-4.5-0.8-8.9,2.1-9.8,6.5l-6.2,21.6
		c-1.3,2.8-0.8,6,1.2,8.4C442,70.2,445.2,71.1,448.1,70.2z"/>
	<path d="M427.3,64.7c2.9-1.1,4.8-3.7,5-6.7l4.7-22c1.3-4.4-1.2-8.9-5.6-10.3c-4.3-0.7-8.6,2.4-9.3,7l-4.7,22
		c-1.1,2.8-0.4,6.1,1.7,8.2C421.2,65,424.5,65.8,427.3,64.7z"/>
	<path d="M406.7,61c2.8-1.3,4.5-4.1,4.4-7.2l3.3-22.2c0.9-4.4-1.9-8.8-6.3-9.8c-4.5-0.3-8.5,3.1-8.8,7.6L396,51.6
		c-0.9,2.9,0,6.1,2.3,8.2C400.6,61.8,403.9,62.3,406.7,61z"/>
	<path d="M377.4,57.6c2.4,1.8,5.7,2,8.4,0.6c2.7-1.4,4.2-4.3,4-7.4l1.6-22.4c0.6-4.5-2.4-8.7-6.9-9.4c-4.6,0.1-8.3,3.9-8.4,8.4
		l-1.6,22.4C373.9,52.8,375,55.8,377.4,57.6z"/>
	<path d="M356.3,57.3c2.6,1.6,5.8,1.6,8.4,0c2.6-1.6,3.9-4.6,3.5-7.6V27.2c0.3-4.5-3.1-8.5-7.6-8.9c-4.6,0.3-8,4.3-7.8,8.9v22.5
		C352.4,52.7,353.7,55.7,356.3,57.3z"/>
	<path d="M331.2,50.9c-0.3,3,1.3,6,3.9,7.5c2.7,1.5,6,1.3,8.4-0.6c2.4-1.8,3.6-4.9,2.9-7.9l-1.6-22.4c0-4.6-3.6-8.3-8.2-8.4
		c-4.4,0.7-7.5,4.9-7,9.4L331.2,50.9z"/>
	<path d="M309.9,53.7c0,3,1.7,5.8,4.5,7.1s6,0.8,8.3-1.2s3.2-5.2,2.3-8.1l-3.3-22.1c-0.3-4.5-4.2-8-8.8-7.8c-4.3,1-7.1,5.4-6.3,9.8
		L309.9,53.7z"/>
	<path d="M288.5,58c0.2,3,2.2,5.7,5,6.7c2.8,1.1,6.1,0.4,8.2-1.8c2.1-2.2,2.8-5.4,1.7-8.2l-4.7-22c-0.6-4.5-4.8-7.7-9.3-7.2
		c-4.3,1.3-6.9,6-5.6,10.5L288.5,58z"/>
	<path d="M267.6,63.7c0.4,3,2.5,5.6,5.4,6.5c2.9,0.9,6.1,0,8.1-2.3c2-2.3,2.5-5.6,1.2-8.4l-6.2-21.6c-0.9-4.5-5.3-7.4-9.8-6.5
		c-4.2,1.6-6.4,6.4-4.9,10.7L267.6,63.7z"/>
	<path d="M247.1,70.9c0.6,3,2.9,5.4,5.9,6.1s6.1-0.4,7.9-2.9c1.8-2.4,2.1-5.7,0.6-8.4l-7.7-21.1c-1.3-4.4-5.8-7-10.2-5.8
		c-4.1,1.9-5.9,6.8-4.1,11L247.1,70.9z"/>
	<path d="M218.2,59l9.1,20.5c0.8,3,3.2,5.2,6.3,5.6c3,0.5,6-0.9,7.7-3.4c1.7-2.6,1.7-5.9,0-8.4l-9.2-20.5c-1.6-4.3-6.2-6.5-10.6-5.1
		C217.5,49.9,216.1,54.9,218.2,59L218.2,59z"/>
	<path d="M208,89.5c1,2.9,3.6,4.9,6.6,5.1c3,0.2,5.9-1.3,7.4-3.9c1.5-2.7,1.3-5.9-0.5-8.4L211,62.6c-1.9-4.2-6.7-6.1-10.9-4.3
		c-3.9,2.4-5,7.5-2.6,11.4L208,89.5z"/>
	<path d="M189.6,100.8c1.3,2.7,4,4.4,7,4.4s5.7-1.7,7-4.3c1.3-2.7,1-5.8-0.9-8.2l-11.9-19c-2.1-4-7.1-5.6-11.1-3.6
		c-3.9,2.6-4.7,7.9-2,11.6L189.6,100.8z"/>
	<path d="M171.8,113.4c1.4,2.7,4.3,4.3,7.3,4.1s5.7-2.1,6.8-4.9c1.1-2.8,0.4-6.1-1.7-8.2l-13.1-18.1c-2.4-3.9-7.5-5.1-11.4-2.8
		c-3.4,3-3.9,8.2-1,11.7L171.8,113.4z"/>
	<path d="M140.7,109.9l14.4,17.2c1.6,2.7,4.5,4.2,7.6,3.8c3.1-0.4,5.6-2.5,6.5-5.5c0.9-3-0.1-6.2-2.4-8.1l-14.4-17.2
		c-2.6-3.7-7.8-4.7-11.5-2.1c-3.2,3.3-3.2,8.5,0,11.7L140.7,109.9z"/>
	<path d="M139.4,142c1.8,2.5,4.8,3.7,7.8,3.1c3-0.6,5.3-2.9,6-5.8s-0.4-6.1-2.8-7.9l-15.6-16.1c-2.9-3.5-8.1-4-11.7-1.2
		c-3,3.4-2.6,8.7,0.7,11.8L139.4,142z"/>
	<path d="M108,143l16.7,15c1.9,2.4,5.1,3.4,8,2.6c3-0.8,5.2-3.3,5.6-6.3c0.5-3-0.9-6-3.4-7.7l-16.8-15c-3.2-3.3-8.4-3.4-11.7-0.3
		C103.7,134.9,104.4,140.1,108,143z"/>
	<path d="M93.5,161.1l17.7,13.8c2.1,2.2,5.3,3,8.2,2c2.9-1,4.9-3.6,5.2-6.7c0.3-3-1.3-6-4-7.4L103,149.1c-3.4-3-8.6-2.8-11.7,0.5
		C88.8,153.4,89.8,158.5,93.5,161.1z"/>
	<path d="M80.3,180.2l18.6,12.6c2.2,2.1,5.5,2.7,8.3,1.5s4.7-3.9,4.7-7c0.1-3.1-1.7-5.9-4.5-7.2l-18.7-12.6
		c-3.6-2.8-8.7-2.2-11.6,1.3C74.9,172.9,76.4,177.9,80.3,180.2z"/>
	<path d="M68.4,200.2l19.4,11.2c2.4,1.9,5.7,2.3,8.4,0.9s4.4-4.3,4.2-7.3s-2.1-5.7-5-6.8L76,187c-3.8-2.5-8.9-1.6-11.5,2.1
		C62.6,193.2,64.4,198.1,68.4,200.2z"/>
	<path d="M58,220.9l20.2,9.8c2.5,1.7,5.8,1.8,8.4,0.3c2.6-1.6,4.1-4.5,3.7-7.6c-0.4-3-2.5-5.6-5.4-6.5l-20.2-9.8
		c-3.9-2.3-9-1-11.3,2.9C51.7,214.4,53.8,219.2,58,220.9z"/>
	<path d="M49.1,242.4l20.8,8.4c2.6,1.5,5.9,1.4,8.4-0.3c2.5-1.7,3.7-4.8,3.2-7.8c-0.6-3-2.8-5.4-5.7-6.1l-20.9-8.4
		c-4.1-2-9.1-0.3-11.1,3.8C42.3,236.4,44.7,241.1,49.1,242.4z"/>
	<path d="M41.6,264.4l21.3,6.9c2.7,1.4,6,1.1,8.4-0.9c2.4-1.9,3.4-5.1,2.6-8c-0.8-2.9-3.3-5.2-6.3-5.6l-21.4-6.9
		c-4.2-1.7-9.1,0.3-10.9,4.4C34.4,258.8,37.1,263.2,41.6,264.4z"/>
	<path d="M35.7,286.9l21.8,5.4c2.8,1.2,6.1,0.6,8.3-1.4s3-5.3,2-8.2c-1-2.9-3.6-4.9-6.7-5.2l-21.8-5.4c-4.3-1.4-9,0.9-10.5,5.2
		C28.2,281.8,31.2,286.1,35.7,286.9z"/>
	<path d="M31.4,309.7l22.1,4.1c2.8,0.7,5.8-0.2,7.7-2.4c1.9-2.2,2.4-5.3,1.4-8s-3.6-4.6-6.5-4.8l-22.1-4c-4.4-1.1-8.9,1.6-10,6
		C23.5,305.2,26.9,309.3,31.4,309.7z"/>
	<path d="M28.7,332.8l22.3,2.4c2.9,0.8,6.1-0.3,8-2.6c1.9-2.3,2.3-5.6,0.9-8.4c-1.4-2.7-4.2-4.4-7.3-4.2l-22.3-2.3
		c-4.5-0.9-8.9,2-9.8,6.5C20.5,328.7,24.1,332.5,28.7,332.8z"/>
	<path d="M27.6,356l22.4,0.8c3,0.6,6.1-0.7,7.8-3.2c1.8-2.5,1.9-5.8,0.3-8.4c-1.6-2.6-4.5-4.1-7.6-3.7l-22.4-0.8
		c-4.5-0.5-8.6,2.7-9.2,7.3C19.2,352.5,23.1,356.1,27.6,356z"/>
	<path d="M28.2,379.1l22.4-0.8c3,0.4,6-1.1,7.6-3.7c1.6-2.6,1.4-5.9-0.3-8.4c-1.8-2.5-4.8-3.7-7.8-3.2l-22.4,0.8
		c-4.5-0.2-8.4,3.3-8.7,7.9C19.5,376.3,23.6,379.6,28.2,379.1z"/>
	<path d="M30.4,402l-0.1,0.4l22.3-2.4c3,0.1,5.9-1.5,7.3-4.2c1.4-2.7,1-6-0.9-8.4c-1.9-2.4-5-3.4-8-2.6l-22.3,2.4
		c-4.5,0.2-8.1,3.8-8.1,8.3C21.5,400,25.9,402.9,30.4,402z"/>
	<path d="M34.1,425.3l22-3.9c3-0.1,5.7-1.9,6.9-4.7c1.2-2.8,0.6-6-1.4-8.3c-2.1-2.2-5.2-3.1-8.1-2.1l-22.1,3.9
		c-4.5,0.5-7.8,4.5-7.5,9C25.1,423.7,29.6,426.4,34.1,425.3z"/>
	<path d="M39.4,447.8l21.8-5.4c3.1-0.3,5.7-2.3,6.7-5.2c1-2.9,0.2-6.1-2-8.2c-2.2-2.1-5.5-2.7-8.3-1.4L35.8,433
		c-4.5,0.8-7.5,5-6.8,9.5C30.3,446.8,35,449.2,39.4,447.8z"/>
	<path d="M67.6,463.2c3-0.5,5.4-2.7,6.2-5.6c0.8-2.9-0.2-6.1-2.6-8c-2.4-1.9-5.6-2.3-8.4-0.9l-21.3,7c-4.3,1.1-7.1,5.4-6.1,9.8
		c0.8,2.1,2.4,3.7,4.4,4.6c2.1,0.8,4.4,0.8,6.5,0L67.6,463.2z"/>
	<path d="M75.7,483.4c3-0.7,5.3-3.1,5.9-6.1c0.6-3-0.6-6.1-3.2-7.8c-2.6-1.7-5.8-1.9-8.4-0.3l-20.8,8.4c-4.3,1.4-6.7,6-5.4,10.4
		c2,4,6.9,5.7,11,3.8L75.7,483.4z"/>
	<path d="M84.9,502.9c3-0.8,5.2-3.3,5.7-6.4c0.4-3.1-1-6.1-3.7-7.7c-2.7-1.6-6-1.5-8.5,0.4L58.2,499c-2.1,0.8-3.8,2.4-4.7,4.4
		s-1,4.4-0.1,6.5c2.3,3.9,7.3,5.2,11.3,2.8L84.9,502.9z"/>
	<path d="M95.5,521.8c2.8-1.1,4.8-3.8,4.9-6.8c0.1-3-1.5-5.9-4.2-7.3c-2.7-1.4-6-1.1-8.4,0.8l-19.5,11.1c-4.1,2-5.8,6.9-3.9,11
		c2.6,3.8,7.8,4.7,11.5,2.2l0.2,0.2L95.5,521.8z"/>
	<path d="M111.9,532.5c-0.1-3.1-1.9-5.8-4.7-7s-6.1-0.6-8.3,1.5l-18.6,12.6c-4,2.2-5.4,7.2-3.3,11.2c1.4,1.8,3.4,2.9,5.6,3.2
		c2.2,0.3,4.4-0.3,6.2-1.7l18.6-12.6C110.2,538.4,111.9,535.6,111.9,532.5z"/>
	<path d="M124.7,549.7c-0.3-3-2.3-5.7-5.2-6.7s-6.1-0.2-8.2,2l-17.7,13.9c-3.8,2.5-4.8,7.6-2.4,11.4c3.1,3.4,8.3,3.6,11.8,0.6
		l17.7-13.8C123.4,555.6,124.9,552.7,124.7,549.7z"/>
	<path d="M138.6,565.5c-0.4-3.1-2.7-5.6-5.8-6.4c-3-0.8-6.3,0.4-8.1,2.9L108,577c-3.6,2.8-4.3,8-1.6,11.6c3.4,3.1,8.6,3,11.8-0.3
		l16.7-15C137.6,571.7,139.1,568.6,138.6,565.5z"/>
	<path d="M153.3,580.6c-0.7-3-3.1-5.3-6.1-5.9c-3-0.6-6.1,0.7-7.8,3.2L123.8,594c-3.4,3-3.7,8.2-0.8,11.7c3.6,2.9,8.8,2.4,11.8-1.1
		l15.6-16.1C152.8,586.7,154,583.5,153.3,580.6z"/>
	<path d="M169.1,594.5c-0.9-2.9-3.4-5.1-6.5-5.4c-3-0.4-6,1.1-7.6,3.7L140.7,610c-3.2,3.2-3.2,8.5,0,11.7c3.7,2.6,8.9,1.8,11.6-1.9
		h0.1l14.4-17.2C169.1,600.6,170,597.4,169.1,594.5z"/>
	<path d="M185.9,607.4c-1.1-2.8-3.8-4.8-6.8-4.9c-3-0.2-5.9,1.4-7.3,4.1l-13.1,18.1c-2.9,3.5-2.5,8.7,0.9,11.7
		c3.9,2.4,9,1.2,11.5-2.7l13.1-18.1C186.3,613.4,187,610.2,185.9,607.4z"/>
	<path d="M203.4,619c-1.3-2.7-4-4.4-7-4.4s-5.7,1.8-7,4.5l-11.9,19.1c-2.7,3.7-1.9,8.8,1.7,11.6c4.1,2.1,9.1,0.5,11.2-3.5l0.2,0
		l11.9-19.1C204.4,624.9,204.7,621.7,203.4,619z"/>
	<path d="M222.1,629.3c-1.5-2.7-4.4-4.2-7.4-3.9s-5.6,2.3-6.6,5.1l-10.5,19.9c-2.4,3.9-1.3,8.9,2.5,11.4c4.2,1.8,9.1-0.1,10.9-4.2
		v-0.1l10.6-19.8C223.4,635.3,223.6,632,222.1,629.3z"/>
	<path d="M241.2,638.3c-1.6-2.5-4.7-3.9-7.7-3.4s-5.5,2.7-6.3,5.6l-9.1,20.5c-2.1,4-0.7,9,3.3,11.2c4.3,1.5,9-0.7,10.6-5l0.1,0
		l9.1-20.5C242.8,644.1,242.8,640.8,241.2,638.3z"/>
	<path d="M261,645.8c-1.8-2.4-4.9-3.6-7.9-2.9c-3,0.7-5.3,3.1-5.9,6.1l-7.7,21c-1.8,4.2,0,9,4.1,11c4.4,1.2,8.9-1.4,10.3-5.7
		l7.7-21.1C263.1,651.5,262.8,648.2,261,645.8z"/>
	<path d="M273,649.7c-2.9,0.9-5.1,3.4-5.4,6.5l-6.1,21.6c-1.6,4.3,0.6,9,4.8,10.7c4.5,0.9,8.9-2.1,9.8-6.5l6.2-21.6
		c1.3-2.8,0.8-6-1.2-8.4C279.1,649.7,275.9,648.8,273,649.7z"/>
	<path d="M293.6,655.1c-2.8,1.1-4.8,3.7-5,6.7l-4.7,21.9c-1.3,4.4,1.2,8.9,5.6,10.3c4.5,0.6,8.7-2.6,9.3-7.1v0.2l4.7-22
		c1.1-2.8,0.4-6.1-1.7-8.2C299.7,654.7,296.4,654,293.6,655.1z"/>
	<path d="M322.7,660.3c-2.3-2-5.6-2.5-8.3-1.2c-2.7,1.3-4.5,4.1-4.5,7.1l-3.1,22.2c-0.9,4.4,1.9,8.8,6.2,9.8
		c4.6,0.4,8.5-3.1,8.8-7.6l3.3-22.2C326,665.5,325.1,662.3,322.7,660.3z"/>
	<path d="M343.5,662.2c-2.4-1.8-5.7-2.1-8.4-0.6c-2.7,1.5-4.2,4.4-4,7.4l-1.5,22.4c-0.6,4.5,2.4,8.7,6.9,9.4c4.7,0,8.4-3.7,8.4-8.3
		l1.5-22.4C347.1,667.1,346,664,343.5,662.2z"/>
	<path d="M364.8,662.8c-2.6-1.7-5.9-1.7-8.4,0c-2.6,1.7-3.9,4.7-3.4,7.7v22.4c-0.3,4.5,3,8.5,7.6,8.9c4.4-0.4,7.8-4.4,7.6-8.9v-22.4
		C368.7,667.5,367.3,664.4,364.8,662.8z"/>
	<path d="M315.2,90.3c0.5,6.7,8.4,5,16.6,4.2c16.2-1.5,32.4-1.7,48.6-0.8c8,0.7,26,6.7,26.3-3.6c0.1-6.2-10.7-7.6-16.6-8.2
		c-8.9-0.8-26.2-0.7-32.7-0.5C343.7,81.7,314.3,79.2,315.2,90.3z"/>
	<path d="M431.9,88.9c-7.6-1.1-10.7,2.9-9.8,7.8C424.3,108,442.8,97.7,431.9,88.9z"/>
	<path d="M295.1,93.1c-1.6-6.8-15.1-6.6-12.8,5.4C287.6,105.1,296.8,100.6,295.1,93.1z"/>
	<path d="M522.9,130.9c-12.4-8.1-25.3-15.5-38.6-22.1c-5.8-3-16.7-11.1-22.9-8.3c-2.9,1.1-4.7,4.1-4.2,7c1,6.4,12.7,7.6,18.9,10.6
		c16.3,8.1,31.9,17.6,46.5,28.6c1.5,1.2,4.7,6.4,9.5,5.8c3-0.8,5.2-3.3,5.7-6.3C538.4,140.7,530.2,135.9,522.9,130.9z"/>
	<path d="M198.2,128.9c-5,3.4-15.4,9.9-14.6,15.7c1.5,9.3,10.8,3.5,15.2,0.2c14.7-11.1,30.6-20.5,47.4-27.9
		c7.7-3.4,26.1-9.3,14.6-18.9c-0.5,0-5.9,0.1-5.5-0.1C238,106.5,215.9,116.7,198.2,128.9z"/>
	<path d="M158.7,154.8c-4.3,4.3-2.6,11.7,2.2,12.8C171.3,169.7,171.8,150.6,158.7,154.8z"/>
	<path d="M556.7,161c-1.9-1.1-4.3-1.2-6.3-0.2c-1.6,0.5-3,1.6-3.8,3.1s-0.9,3.2-0.3,4.8c1.6,6.9,13.6,6.1,13.6-2.2
		C559.8,164.2,558.6,162.2,556.7,161z"/>
	<path d="M594.5,199.7c-3.5-5-10.7-16.1-13.3-16.9c-2.2-0.5-4.4-0.3-6.4,0.7c-6.7,3.6-1.5,10.5,2.1,15.1c11.3,14,20.7,29.4,28,45.8
		c3.3,7.3,4.9,17.6,10.9,18.5c10.6,1.6,7.8-8.5,5-15C613.7,231,604.8,214.9,594.5,199.7z"/>
	<path d="M146.1,181.2c-2.1-0.6-4.3-0.2-6,1.1c-11.7,12-25,34.4-34.4,52.9c-3.7,7.1-14,25.4-2,26.1c8.1,0.5,9-11.4,12.3-18.1
		c8-16.6,17.9-32.2,29.5-46.7c1.9-2.5,5.8-6.8,4.9-11C149.7,183.5,148.2,181.9,146.1,181.2z"/>
	<path d="M616.9,286.1c1.3,7.6,15.5,6.8,13.6-3c-0.8-4.1-4.9-6.1-9.5-4.1C618,279.9,616.2,283,616.9,286.1z"/>
	<path d="M96.8,278.9c-1.5-1.1-3.4-1.5-5.2-1.1c-9.8,2.1-4.4,14.4,2.1,13.5c3.5-1,5.8-4.2,5.7-7.8C99.2,281.7,98.3,280,96.8,278.9z"
		/>
	<path d="M643.2,389.9c1.3-15.9,1.5-31.9,0.8-47.8c-0.4-6.3-1.1-21.9-4.4-24.7c-4.4-3.8-9,0.5-11.2,3.8c3,21.6,3.7,43.5,2.1,65.3
		c-0.7,7.2-5.3,20.8,4.5,20.8C640.3,407.2,642.4,398.7,643.2,389.9z"/>
	<path d="M82.4,312.8c-4.1,3.2-4.7,19-5.2,27c-0.4,5.9-0.7,16.1-0.4,25.5c0.4,12.7-0.3,40.3,11.4,36.8c7-2.2,2.3-15.9,1.9-21.5
		c-1-18.1-0.7-36.2,0.8-54.2c0.4-3.7,3.5-9.9,0.2-13.5l0.1-0.1C89.5,311.3,83.9,310.2,82.4,312.8z"/>
	<path d="M633,433.6c1.7-3.6,1.1-9.3-1.4-11.2c-7.3-1.2-11.2,1.4-10.5,8.7C623.7,435,629,436.1,633,433.6z"/>
	<path d="M86.8,433.9c7.9,1,11-14.8,0.2-12.7C78,423,82.1,433.3,86.8,433.9z"/>
	<path d="M578.1,537.6c7.6,2.6,12.8-9.2,16.1-14.1c8.9-12.2,16.8-25.1,23.7-38.6c3.7-7.4,17.1-32-1.2-26.1
		c-4.8,3.7-6.2,12.3-9.8,19.6c-6.4,12.6-13.8,24.8-22.1,36.3c-2.7,3.8-12.1,13.5-10.6,18.9C575.2,535.2,576.5,536.6,578.1,537.6z"/>
	<path d="M123,519c1.8,2.8,7.9,17.9,16.3,15.4c8.4-2.5,1.9-10.9-0.6-14.4c-10.6-14.6-19.7-30.2-27.1-46.6
		c-3.8-8.7-10-26.9-19.6-16.3c0.2,9.3,4.4,16.5,7.7,23.3C106.4,493.9,114.2,506.8,123,519z"/>
	<path d="M564.2,561.5c7.5-0.8,7.2-16.1-3-12.8C552.8,551.5,556.6,562.2,564.2,561.5z"/>
	<path d="M150.2,558.3c5.9,9.6,19.2-3.3,9.8-9.4C152.4,547.7,149.5,551.2,150.2,558.3z"/>
	<path d="M478.1,614.4c14.3-6.7,28-14.5,41-23.4c4.9-3.3,17.5-9.7,17-15.7c-0.2-2-5.9-8.3-9.5-5.7c-13.5,9.6-34.5,24.9-54.6,33.4
		c-8.9,3.7-20.8,6.5-16.2,15.7l-0.1,0.1C463.2,624.6,471.6,617.7,478.1,614.4z"/>
	<path d="M195.1,593.8c13.3,9,27.3,17,41.8,23.8c6.1,2.9,19.6,10.5,22.2,2.7c2.6-7.8-9.4-10.8-15.7-13.7c-8.4-3.8-14.9-6.5-20.6-9.8
		c-15.8-8.7-25.6-18.7-37-24.4l0.3-0.2c-1.9-0.4-3.7,0.1-5.2,1.3s-2.2,3-2.1,4.9C178.4,584.6,189.8,590.2,195.1,593.8z"/>
	<path d="M427.1,625.5c1.6,10.4,20.2,3.5,11.2-7C431.2,615.2,426.3,620.8,427.1,625.5z"/>
	<path d="M275.7,626.3c1,11.5,21.5,3,10.5-7C279,618.3,275.4,621.8,275.7,626.3z"/>
	<path d="M405.5,630.7c0.7-7.4-4.3-6.3-8.7-6.5v-0.1h-1.5c-13.2-0.2-35.7,2.8-53.4,1.6c-8.9-0.6-29.6-7.3-27.2,5.2
		c1.7,7.9,17.1,6.1,27.8,6.8c13.8,1,27.6,1.3,41.4,0.7C392.3,637.8,404.8,637.2,405.5,630.7z"/>
	<path d="M252.6,160.7c-1.7-0.8-3.6-1-5.4-0.3c-1.8,0.7-3.3,1.9-4.1,3.6c-1.7,3.5-0.2,7.7,3.3,9.4c3.5,1.7,7.7,0.2,9.4-3.3
		C257.5,166.6,256.1,162.4,252.6,160.7z"/>
	<path d="M164.8,246.1c-1.9,0.6-3.3,1.9-4.1,3.6c-1.7,3.5-0.2,7.7,3.3,9.4s7.7,0.2,9.4-3.3c1.7-3.5,0.3-7.7-3.2-9.4
		C168.5,245.6,166.6,245.4,164.8,246.1z"/>
	<path d="M135.4,360.5c-1.9,0.5-3.3,1.8-4.1,3.5c-1.7,3.5-0.2,7.7,3.3,9.4c3.5,1.7,7.7,0.2,9.4-3.2c1.7-3.5,0.3-7.7-3.2-9.4
		C139.1,360,137.2,359.8,135.4,360.5z"/>
	<path d="M177.8,465.6c-1.7-0.8-3.6-1-5.4-0.3c-1.8,0.6-3.3,1.9-4.1,3.6c-1.7,3.5-0.2,7.7,3.3,9.4s7.7,0.2,9.4-3.3
		S181.3,467.3,177.8,465.6z"/>
	<path d="M261.2,554.4c1.7-3.4,0.3-7.7-3.2-9.4c-1.7-0.8-3.6-1-5.4-0.3s-3.3,1.8-4.1,3.5c-1.7,3.5-0.2,7.7,3.3,9.4
		S259.5,557.8,261.2,554.4z"/>
	<path d="M367,577.5c-1.7-0.8-3.6-1-5.4-0.4c-1.8,0.6-3.3,1.9-4.1,3.6c-1.7,3.5-0.2,7.7,3.3,9.4s7.7,0.2,9.4-3.2
		C371.9,583.4,370.5,579.2,367,577.5z"/>
	<path d="M483,558.5c3.5,1.7,7.7,0.3,9.4-3.2c1.7-3.5,0.3-7.7-3.2-9.4c-1.7-0.8-3.7-1-5.4-0.4c-1.8,0.6-3.3,1.9-4.1,3.6
		C478,552.6,479.5,556.8,483,558.5z"/>
	<path d="M565.4,457.3c-1.7-0.8-3.6-1-5.4-0.4c-1.8,0.6-3.3,1.9-4.1,3.6c-1.7,3.5-0.2,7.7,3.3,9.4c3.5,1.7,7.7,0.2,9.4-3.2
		C570.3,463.2,568.9,459,565.4,457.3z"/>
	<path d="M581.3,346.5c-1.7,0.6-3.3,1.9-4.1,3.6c-1.7,3.5-0.2,7.7,3.3,9.4c3.5,1.7,7.7,0.3,9.4-3.2s0.3-7.7-3.2-9.4
		C585,346.1,583,345.9,581.3,346.5z"/>
	<path d="M556.4,238.6c-1.7-0.8-3.6-1-5.4-0.3c-1.9,0.6-3.3,1.9-4.1,3.6c-1.7,3.5-0.2,7.7,3.3,9.4s7.7,0.2,9.4-3.3
		S559.9,240.3,556.4,238.6z"/>
	<path d="M480,158.6c-3.4-1.8-7.6-0.4-9.4,3.1c-1.3,2.5-0.9,5.6,0.9,7.8c1.9,2.2,4.8,3,7.6,2.1c2.7-0.9,4.6-3.3,4.8-6.2
		C484.1,162.6,482.6,159.9,480,158.6z"/>
	<path d="M357.6,142.3c3.5,1.7,7.7,0.2,9.4-3.3s0.3-7.7-3.2-9.4c-1.7-0.8-3.6-1-5.4-0.3c-1.9,0.6-3.3,1.9-4.1,3.6
		C352.6,136.4,354.1,140.6,357.6,142.3z"/>
	<path d="M238.1,280.8h0.2c6.7-3.7,13.3-7,20.1-9.8c6.7-2.7,13.8-5.3,21.1-7.7h0.3c0.8-0.3,1.4-0.9,1.8-1.8c0.4-0.9,0.4-1.8,0-2.6
		l-0.3,0.3c-0.4-0.9-1.2-1.6-2.2-1.9l-13.1-4l-8.1-2.5c-2.5-0.7-5.1-0.5-7.4,0.6l-0.4,0.2h-0.4c-2.3,1-4.2,2.7-5.4,4.8l-3.9,7.5
		l-6.5,12.2c-0.8,1.3-0.7,2.9,0.3,4C235.2,281.2,236.8,281.5,238.1,280.8z"/>
	<path d="M439.4,260c-0.1,1.5,0.8,2.8,2.2,3.3h0.3c7.2,2.3,14.2,4.8,20.9,7.6c6.7,2.9,13.4,6.2,20.1,9.8h0.2
		c0.8,0.4,1.8,0.4,2.6,0.1s1.5-1,1.8-1.8c0.4-0.9,0.3-2-0.2-2.9l-6.4-12.2l-4.2-7.7c-1.3-2.3-3.2-4-5.6-4.9h-0.4l-0.4-0.2
		c-2.3-1-4.9-1.3-7.4-0.6l-8.1,2.5l-13.1,4h0.3C440.6,257.3,439.5,258.5,439.4,260z"/>
	<path d="M398.6,479.7c-4.6-0.9-9.3-1.3-14-1.3c-5.6,2.5-7.5,8.6-10.6,13.6c-3.3-3.1-8.3-13.5-13.9-13.3c-2.8,0.1-5.5,3.9-7.3,6
		c-2.4,2.8-4.5,4.8-6.3,7.3c-3-5.1-5.2-13.5-12.4-14.1c-4,0.4-8,0.9-11.9,1.7c1.7,5.6,7,7.1,10.3,10.6c7.1,7.3,13.3,15.3,18.6,23.9
		c1.8,2.8,5.1,12.3,9,12.3c3.9,0.1,7.3-8.6,9.3-11.9c5.3-8.6,11.6-16.6,18.6-23.9C391.5,487.1,396.9,485.3,398.6,479.7z M360.8,504
		c-4.6-3.6-4-16.2-0.7-20.6C365.1,486.3,364.1,500.1,360.8,504z"/>
	<path d="M463.2,481.4c2.5,0.7,5.1,0.5,7.4-0.6l0.4-0.2h0.4c2.4-1,4.3-2.7,5.6-4.9l4-7.6l6.2-12.1c0.5-0.9,0.5-2,0-2.9
		c-0.3-0.8-1-1.5-1.8-1.8c-0.9-0.3-1.8-0.3-2.6,0.1h-0.2c-6.7,3.7-13.6,7-20.1,9.8c-6.7,2.8-13.6,5.4-20.9,7.7h-0.3
		c-0.8,0.3-1.4,0.9-1.8,1.8c-0.4,0.9-0.4,1.8,0,2.6l0.3-0.3c0.4,0.9,1.2,1.6,2.2,1.9l13.1,4L463.2,481.4z"/>
	<path d="M316.9,496.8l-3.9-7.5c-1.2-2.2-3.2-4-5.6-4.9H307l-0.4-0.2c-2.3-1-4.9-1.3-7.4-0.6l-8.2,2.5l-13.1,4l0.2-0.2
		c-1.4,0.3-2.5,1.5-2.6,3s0.8,2.8,2.2,3.3h0.3c7.2,2.3,14.2,4.8,20.9,7.6c6.7,3,13.4,6.2,20.1,9.8h0.2c1.3,0.7,2.9,0.4,3.9-0.7
		c0.9-1.1,1.1-2.7,0.3-3.9L316.9,496.8z"/>
	<path d="M279.3,475.3c1.5-0.3,2.5-1.3,2.6-2.8s-0.8-2.8-2.2-3.3h-0.3c-7.2-2.4-14.2-4.7-20.9-7.7s-13.4-6.2-20.1-9.8h-0.3
		c-1.3-0.7-2.9-0.4-3.9,0.7c-0.9,1.1-1.1,2.7-0.3,3.9l6.4,12.2l4,7.6c1.3,2.3,3.2,4,5.6,4.9h0.4l0.4,0.2c2.3,1,4.9,1.2,7.4,0.6
		l8.1-2.5L279.3,475.3z"/>
	<path d="M443,490.3l-13.1-4l-8.2-2.5c-2.5-0.7-5.1-0.5-7.4,0.6l-0.4,0.2h-0.4c-2.4,1-4.3,2.7-5.6,4.9L404,497l-6.4,12.2
		c-0.5,0.9-0.6,2-0.2,2.9c0.3,0.8,1,1.5,1.8,1.8c0.9,0.3,1.8,0.3,2.6-0.1h0.2c6.7-3.7,13.3-7.1,20.1-9.8s13.7-5.3,21-7.6h0.3
		c0.8-0.3,1.4-0.9,1.8-1.8c0.4-0.9,0.4-1.8,0-2.6C444.8,491.1,444,490.4,443,490.3z"/>
	<path d="M350.7,287.3l-21.6,10.1l-0.3,0.2c-1,0.5-1.6,1.5-1.6,2.6c0,0.8,0.3,1.6,0.9,2.1c0.6,0.8,1.4,1.1,2.1,1.1h60.5
		c1.4,0,2.6-1,2.9-2.4c0.3-1.4-0.4-2.8-1.7-3.4l-21.6-10.2c-3.1-1.7-6.4-2.9-9.8-3.8C357.1,284.4,353.8,285.7,350.7,287.3z"/>
	<path d="M390.9,422.4l-0.1-0.1h-60.5c-1.4,0-2.6,1-2.9,2.4c-0.3,1.4,0.4,2.8,1.7,3.4l21.6,10.2c3.1,1.7,6.4,2.9,9.8,3.7
		c3.4-0.8,6.7-2,9.8-3.7l21.6-10.2h0.3c1.2-0.6,1.9-2,1.6-3.4C393.5,423.3,392.3,422.4,390.9,422.4z"/>
	<path d="M405,110.3c-1.4-0.3-2.9-0.1-4.1,0.7s-2.1,2-2.4,3.4c-0.3,1.2-0.1,2.6,0.5,3.8l12.6,20.3c1.3,2,3.3,3.5,5.7,4
		c2.3,0.5,4.8,0.1,6.9-1.1l19.9-12.4c1.8-1.2,2.8-3.3,2.4-5.4c-0.4-2.1-1.9-3.9-3.9-4.4h-0.3c-0.6-0.1-1.2-0.1-1.9,0
		c-11.8,1.5-23.8-1.4-33.7-8.1C406.2,110.8,405.6,110.5,405,110.3z"/>
	<path d="M385.8,175.9c-1.9,1.1-3,3.3-2.6,5.5c0.3,2.2,2,4,4.1,4.5h0.3c0.6,0.1,1.2,0.1,1.9,0c5.8-0.8,11.8-0.5,17.5,0.8
		c5.7,1.4,11.2,3.7,16.1,7c0.5,0.3,1.1,0.6,1.7,0.8c2.1,0.5,4.3-0.3,5.5-2c1.3-1.7,1.5-4,0.4-5.9l0.2,0.1l-12.6-20.3
		c-1.3-2-3.3-3.5-5.7-4c-2.3-0.5-4.8-0.1-6.9,1.1L385.8,175.9z"/>
	<path d="M373.1,162.4c-0.3,1.4-0.1,2.9,0.7,4.1c0.8,1.2,2,2.1,3.4,2.4c1.3,0.3,2.6,0.1,3.8-0.5h-0.3l20.3-12.6
		c4.2-2.7,5.5-8.3,2.9-12.5l-12.4-19.9c-1.2-1.8-3.3-2.8-5.4-2.4c-2.1,0.4-3.9,1.9-4.4,3.9v0.3c-0.1,0.6-0.1,1.3,0,1.9
		c1.6,11.8-1.2,23.7-7.8,33.6C373.6,161.2,373.3,161.8,373.1,162.4z"/>
	<path d="M428.9,149.1c-2,1.3-3.5,3.3-4,5.7c-0.5,2.4-0.1,4.8,1.1,6.9l12.5,19.9c0.7,1.3,2,2.2,3.4,2.6c2.9,0.7,5.8-1.1,6.5-4.1
		v-0.3c0.1-0.6,0.1-1.3,0-1.9c-1.6-11.8,1.2-23.7,7.8-33.6c0.3-0.5,0.6-1.1,0.8-1.7c0.5-2.1-0.3-4.3-2-5.5c-1.7-1.3-4-1.5-5.9-0.4
		l0.1-0.2L428.9,149.1z"/>
	<path d="M417,159.2c3.8-1.1,5.8-5,4.7-8.8c-1.1-3.7-5-5.8-8.8-4.7c-1.8,0.5-3.3,1.8-4.2,3.4s-1,3.6-0.5,5.4
		C409.3,158.2,413.2,160.3,417,159.2z"/>
	<path d="M337.5,547.4c1.3-0.8,2.2-2,2.6-3.5c0.3-1.4,0.1-2.9-0.7-4.1c-0.8-1.2-2-2.1-3.4-2.4h-0.3c-0.6-0.1-1.3-0.1-1.9,0
		c-5.8,0.8-11.8,0.5-17.5-0.9c-5.8-1.4-11.2-3.8-16.1-7.1c-0.5-0.3-1.1-0.6-1.7-0.8c-1.4-0.3-2.9-0.1-4.1,0.7s-2.1,2-2.4,3.4
		c-0.3,1.3-0.1,2.7,0.4,3.8l12.6,20.4c1.3,2,3.3,3.5,5.7,4c2.3,0.5,4.8,0.1,6.9-1.1L337.5,547.4z"/>
	<path d="M316.6,611.8c0.5,0.3,1.1,0.6,1.7,0.8c1.4,0.3,2.9,0.1,4.1-0.7s2.1-2,2.4-3.4c0.3-1.3,0.1-2.6-0.5-3.8l0.1,0.3l-12.6-20.3
		c-1.3-2-3.3-3.5-5.7-4c-2.3-0.5-4.8-0.1-6.9,1.1l-19.9,12.4c-1.8,1.2-2.8,3.3-2.4,5.4c0.4,2.1,1.9,3.9,3.9,4.4h0.3
		c0.6,0.1,1.3,0.1,1.9,0C294.8,602.4,306.7,605.2,316.6,611.8z"/>
	<path d="M294.5,574.2c2-1.3,3.5-3.3,4-5.7s0.1-4.8-1.1-6.9L285,541.7c-1.1-1.9-3.3-3-5.5-2.6c-2.2,0.3-4,2-4.5,4.1v0.3
		c-0.1,0.6-0.1,1.2,0,1.9c1.5,11.8-1.3,23.8-7.8,33.7c-0.3,0.5-0.6,1.1-0.8,1.7c-0.7,2.9,1.1,5.8,4.1,6.5c1.3,0.3,2.6,0.1,3.8-0.6
		l-0.1,0.1L294.5,574.2z"/>
	<path d="M350.3,560.9c0.5-2.1-0.2-4.3-1.9-5.6c-1.7-1.3-4-1.5-5.9-0.4l0.1-0.1l-20.3,12.6c-2.1,1.3-3.5,3.3-4.1,5.7
		c-0.6,2.4-0.1,4.8,1.2,6.9l12.4,19.9c1.1,1.8,3.3,2.8,5.4,2.5c2.1-0.3,3.9-1.9,4.4-4v-0.3c0.1-0.6,0.1-1.3,0-1.9
		c-1.5-11.8,1.3-23.7,7.9-33.6C349.8,562.1,350.1,561.5,350.3,560.9z"/>
	<path d="M306.3,564c-3.7,1.2-5.8,5.1-4.6,8.8c0.8,2.7,3.2,4.7,6,5s5.5-1.2,6.9-3.7c1.3-2.5,1-5.6-0.8-7.8S309,563.2,306.3,564z"/>
	<path d="M527.9,168.9c-0.3-0.6-0.6-1.1-1-1.5c-1.5-1.5-3.8-1.9-5.8-1.1s-3.3,2.7-3.3,4.9l0.5,23.9c0.1,2.4,1.1,4.7,2.8,6.4
		c1.7,1.7,4.1,2.6,6.5,2.5l23.4-0.5c1.5,0,2.9-0.6,4-1.7c1-1,1.5-2.4,1.5-3.9c0-1.4-0.6-2.8-1.7-3.8l-0.2-0.2
		c-0.5-0.5-1.1-0.9-1.8-1.1C541.9,188.1,533,179.6,527.9,168.9z"/>
	<path d="M500.1,248.5c0.3,0.6,0.6,1.1,1,1.5c1,1,2.4,1.5,3.9,1.5c1.4,0,2.8-0.6,3.8-1.7c0.9-1,1.4-2.2,1.5-3.5l0.1,0.1l-0.5-23.9
		c-0.1-2.4-1.1-4.7-2.8-6.4c-1.7-1.7-4.1-2.6-6.5-2.5l-23.4,0.5c-1.5,0-2.9,0.6-4,1.7c-1,1-1.5,2.4-1.5,3.9c0,1.4,0.6,2.8,1.7,3.8
		l0.2,0.2c0.5,0.4,1,0.7,1.6,1C486.1,229.4,495,237.8,500.1,248.5z"/>
	<path d="M472.8,195.8c-1,1-1.6,2.4-1.6,3.8c0,1.4,0.6,2.8,1.6,3.8c1,1,2.3,1.6,3.7,1.7l23.9-0.5c2.4-0.1,4.7-1.1,6.4-2.8
		c1.7-1.7,2.6-4.1,2.5-6.5l-0.5-23.4c0-2.2-1.3-4.2-3.4-5.1c-2.1-0.8-4.4-0.3-6,1.3l-0.2,0.2c-0.4,0.5-0.7,1-1,1.6
		c-4.7,10.9-13.2,19.8-23.9,24.9C473.7,195.1,473.2,195.4,472.8,195.8z"/>
	<path d="M522.7,250.6c2,0.8,4.4,0.3,5.9-1.2l0.2-0.2c0.4-0.5,0.8-1,1-1.6c4.7-10.9,13.2-19.8,23.9-25c0.6-0.3,1.1-0.6,1.5-1
		c1-1,1.6-2.4,1.6-3.8s-0.6-2.8-1.6-3.8c-0.8-0.9-2.1-1.5-3.5-1.6l-24,0.5c-2.4,0.1-4.7,1.1-6.4,2.8c-1.7,1.7-2.6,4.1-2.5,6.5
		l0.5,23.4C519.3,247.8,520.6,249.8,522.7,250.6z"/>
	<path d="M517.7,214.8c2.4-1.5,3.7-4.3,3.3-7.1c-0.4-2.8-2.5-5.1-5.3-5.8c-3.7-0.9-7.4,1.4-8.4,5.2c-0.7,2.8,0.4,5.7,2.6,7.3
		C512.1,216,515.3,216.2,517.7,214.8z"/>
	<path d="M249.8,499.5c-0.5-0.4-1-0.7-1.6-1c-10.9-4.7-19.8-13.2-24.9-23.9c-0.3-0.6-0.6-1.1-1-1.5c-1.5-1.5-3.8-1.9-5.8-1.1
		c-2.1,0.9-3.4,2.7-3.5,4.8l0.5,23.9c0,2.4,1,4.7,2.8,6.4c1.7,1.7,4.1,2.6,6.5,2.5l23.4-0.5c2.2,0,4.2-1.3,5.1-3.4
		c0.8-2.1,0.3-4.4-1.3-6L249.8,499.5z"/>
	<path d="M168.7,529.3c0.5,0.4,1,0.7,1.6,1c10.9,4.7,19.8,13.2,24.9,23.9c0.3,0.6,0.6,1.1,1,1.5c1.5,1.5,3.8,1.9,5.8,1.1
		c2.1-0.8,3.4-2.7,3.5-4.8l-0.5-23.9c-0.1-2.4-1.1-4.7-2.8-6.4s-4.1-2.6-6.5-2.5l-23.4,0.5c-2.2,0-4.2,1.3-5.1,3.4
		c-0.8,2.1-0.3,4.4,1.3,6L168.7,529.3z"/>
	<path d="M171.7,510.7l23.9-0.5c5-0.1,9-4.3,8.9-9.3l-0.5-23.4c0-1.5-0.6-2.9-1.7-4c-1-1-2.4-1.5-3.9-1.5c-1.4,0-2.8,0.6-3.8,1.7
		l-0.2,0.2c-0.4,0.5-0.7,1-1,1.6c-4.7,10.9-13.2,19.8-23.9,24.9c-0.6,0.3-1.1,0.6-1.5,1c-1,1-1.5,2.4-1.5,3.9c0,1.4,0.6,2.8,1.7,3.8
		C169.1,510.1,170.4,510.6,171.7,510.7z"/>
	<path d="M216.2,555.3c1,1,2.4,1.5,3.9,1.5s2.8-0.6,3.8-1.7l0.2-0.2c0.4-0.5,0.7-1,1-1.6c4.7-10.9,13.1-19.8,23.8-24.9
		c0.6-0.3,1.1-0.6,1.5-1c1.5-1.5,2-3.8,1.1-5.8c-0.8-2-2.7-3.3-4.8-3.3l0.2-0.2l-24,0.5c-2.4,0.1-4.7,1.1-6.4,2.8s-2.6,4.1-2.5,6.5
		l0.5,23.4C214.5,552.8,215.1,554.2,216.2,555.3z"/>
	<path d="M210.9,507.5c-1.8-0.4-3.7-0.1-5.3,0.8c-1.6,1.1-2.8,2.6-3.2,4.4c-0.9,3.8,1.4,7.6,5.2,8.5c3.8,0.9,7.6-1.4,8.5-5.2
		C217,512.2,214.7,508.4,210.9,507.5z"/>
	<path d="M599,268.5c-0.4-1.4-1.4-2.6-2.7-3.3c-1.3-0.7-2.8-0.8-4.2-0.3c-1.3,0.5-2.3,1.3-2.9,2.5l-10.9,21.3
		c-2.3,4.5-0.5,9.9,3.9,12.2l20.9,10.6c1.3,0.7,2.9,0.9,4.3,0.4c1.4-0.4,2.5-1.4,3.1-2.7c0.6-1.3,0.8-2.8,0.3-4.1v-0.3
		c-0.2-0.6-0.5-1.1-0.9-1.6c-3.7-4.6-6.5-9.8-8.3-15.5c-1.8-5.6-2.7-11.5-2.4-17.4C599.2,269.7,599.2,269.1,599,268.5z"/>
	<path d="M526.5,294.4c3.7,4.6,6.5,9.8,8.3,15.4c1.8,5.6,2.6,11.5,2.4,17.4c0,0.6,0,1.3,0.2,1.9c0.4,1.4,1.4,2.5,2.7,3.2
		s2.8,0.8,4.1,0.3c1.2-0.4,2.3-1.3,3-2.5l10.9-21.3c1.1-2.1,1.3-4.6,0.5-6.9s-2.4-4.2-4.5-5.3L533.3,286c-2-1.1-4.4-0.8-6.1,0.6
		c-1.7,1.4-2.4,3.8-1.6,5.9v0.3C525.8,293.4,526.2,293.9,526.5,294.4z"/>
	<path d="M539.9,267.5c-0.6,0-1.3,0-1.9,0.2c-1.4,0.4-2.5,1.4-3.2,2.7c-0.7,1.3-0.8,2.8-0.3,4.2c0.4,1.3,1.3,2.3,2.4,3l-0.1,0.2
		l21.3,10.8c2.1,1.1,4.6,1.3,6.9,0.5c2.3-0.7,4.2-2.4,5.3-4.5l10.6-20.9c0.7-1.3,0.9-2.9,0.4-4.3c-0.4-1.4-1.4-2.5-2.7-3.2
		c-1.3-0.7-2.8-0.8-4.1-0.3h-0.3c-0.6,0.2-1.1,0.6-1.6,0.9C563.4,264.2,551.7,268,539.9,267.5z"/>
	<path d="M555.9,340.1c1.5,1.7,3.9,2.4,6,1.6h0.3c0.6-0.2,1.1-0.6,1.6-0.9c9.2-7.4,20.9-11.2,32.7-10.7c0.6,0,1.2,0,1.8-0.2
		c1.4-0.4,2.6-1.4,3.3-2.7c0.7-1.3,0.8-2.8,0.3-4.2c-0.4-1.3-1.3-2.3-2.4-3l0.1-0.2L578.2,309c-2.2-1.1-4.7-1.3-7-0.6
		c-2.3,0.7-4.2,2.4-5.3,4.6l-10.6,20.9C554.2,335.9,554.4,338.3,555.9,340.1z"/>
	<path d="M568.6,306c2.9-0.1,5.4-2,6.3-4.8c0.9-2.7,0.1-5.7-2-7.6c-3-2.5-7.3-2.2-9.9,0.5c-2,2.1-2.4,5.2-1.2,7.8
		S565.7,306.1,568.6,306z"/>
	<path d="M169.2,426.5l20.8,10.6c2,1.1,4.4,0.8,6.1-0.6c1.7-1.5,2.4-3.8,1.6-5.9v-0.3c-0.2-0.6-0.5-1.1-0.9-1.6
		c-7.4-9.2-11.2-20.9-10.7-32.7c0-0.6,0-1.3-0.2-1.9c-0.6-2-2.4-3.5-4.6-3.7s-4.1,0.9-5.1,2.6l-10.9,21.3c-1.1,2.1-1.3,4.6-0.6,6.9
		S167.1,425.4,169.2,426.5z"/>
	<path d="M124.3,454.7c0.4,1.4,1.4,2.6,2.7,3.3c1.3,0.7,2.9,0.8,4.3,0.3c1.2-0.5,2.3-1.4,2.9-2.5l10.9-21.3c2.3-4.5,0.5-9.9-4-12.2
		l-20.9-10.6c-2-1.1-4.4-0.8-6.1,0.6c-1.7,1.4-2.4,3.8-1.6,5.9v0.3c0.2,0.6,0.6,1.1,0.9,1.6c7.4,9.2,11.2,20.9,10.7,32.7
		C124.1,453.4,124.2,454.1,124.3,454.7z"/>
	<path d="M168.4,385.1c-0.4-1.4-1.4-2.5-2.7-3.2s-2.8-0.8-4.2-0.3h-0.3c-0.6,0.2-1.1,0.6-1.6,0.9c-9.2,7.4-20.9,11.2-32.7,10.7
		c-0.6,0-1.3,0-1.9,0.2c-2.9,0.9-4.4,4-3.5,6.9c0.4,1.3,1.3,2.3,2.5,2.9l-0.2,0.2l21.3,10.9c2.2,1.1,4.7,1.3,7,0.6
		c2.3-0.8,4.2-2.4,5.3-4.6l10.6-20.9C168.7,388.1,168.9,386.5,168.4,385.1z"/>
	<path d="M183.6,455.7c0.6,0,1.2,0,1.8-0.2c2.1-0.6,3.5-2.4,3.8-4.5c0.3-2.1-0.8-4.2-2.7-5.3l0.1-0.3l-21.4-10.8
		c-2.1-1.1-4.6-1.3-6.9-0.5c-2.3,0.7-4.2,2.4-5.3,4.5l-10.6,20.9c-1.1,2-0.9,4.4,0.6,6.2c1.5,1.7,3.9,2.4,6,1.6h0.3
		c0.6-0.2,1.1-0.5,1.6-0.9C160.1,459,171.8,455.2,183.6,455.7z"/>
	<path d="M149.9,419.7c-1.9,2.1-2.4,5.2-1.2,7.8s3.9,4.2,6.7,4c2.9-0.2,5.3-2,6.3-4.7c0.9-2.7,0.1-5.7-2-7.6
		C156.8,416.7,152.5,416.9,149.9,419.7z"/>
	<path d="M614.1,397.6c0.5-2.1-0.4-4.3-2.1-5.5c-1.8-1.2-4.1-1.3-5.9-0.2l-20,13.1c-4.2,2.8-5.3,8.4-2.6,12.6l13.1,19.6
		c1.2,1.8,3.4,2.7,5.5,2.3s3.8-2,4.3-4.1v-0.3c0.1-0.6,0.1-1.3,0-1.9c-1.9-11.7,0.6-23.8,6.9-33.9
		C613.6,398.8,613.9,398.2,614.1,397.6z"/>
	<path d="M562.5,406.9c0.5-2.4,0-4.8-1.3-6.8L548,380.5c-1.2-1.8-3.3-2.8-5.5-2.4c-2.1,0.4-3.8,2-4.3,4.2v0.3
		c-0.1,0.6-0.1,1.3,0,1.9c1.9,11.8-0.6,23.8-6.9,33.9c-0.3,0.5-0.6,1.1-0.8,1.7c-0.3,1.4-0.1,2.9,0.7,4.2c0.8,1.2,2.1,2.1,3.5,2.4
		c1.3,0.3,2.7,0,3.8-0.7l0.1-0.2l20-13.1C560.6,411.4,562,409.3,562.5,406.9z"/>
	<path d="M600.7,384.7c1.3-0.8,2.2-2.1,2.5-3.5c0.3-1.4,0.1-2.9-0.7-4.2c-0.8-1.2-2.1-2.1-3.5-2.4h-0.3c-0.6-0.1-1.2-0.1-1.9,0
		c-11.7,1.9-23.8-0.6-33.8-6.9c-0.5-0.3-1.1-0.6-1.7-0.8c-1.4-0.3-2.9-0.1-4.2,0.7c-1.2,0.8-2.1,2.1-2.4,3.5c-0.3,1.4-0.1,2.8,0.7,4
		l13.1,19.9c1.3,2,3.4,3.4,5.8,3.9c2.4,0.5,4.8,0,6.8-1.3L600.7,384.7z"/>
	<path d="M583.6,450.6c2.1,0.5,4.3-0.4,5.5-2.1c1.1-1.7,1.2-4.1,0.1-5.9l-13.1-20c-2.8-4.2-8.4-5.3-12.6-2.5L544,433.2
		c-1.8,1.2-2.8,3.3-2.4,5.5c0.4,2.1,2,3.8,4.2,4.3h0.3c0.6,0.1,1.3,0.1,1.9,0c11.7-1.9,23.8,0.6,33.9,6.9
		C582.4,450.2,583,450.5,583.6,450.6z"/>
	<path d="M570.1,402.2c-3.7,1.2-5.7,5.2-4.4,8.9c1.2,3.7,5.2,5.7,8.9,4.4c3.7-1.3,5.7-5.2,4.4-8.9S573.7,401,570.1,402.2z"/>
	<path d="M162.3,323.1l13.1,19.6c1.2,1.8,3.4,2.7,5.5,2.3c2.1-0.4,3.8-2,4.3-4.1v-0.3c0.1-0.6,0.1-1.2,0-1.9
		c-1.9-11.7,0.6-23.8,6.9-33.9c0.3-0.5,0.6-1.1,0.8-1.7c0.5-2.1-0.4-4.3-2.1-5.5c-1.8-1.2-4.1-1.3-6-0.2l-20,13.1
		C160.6,313.3,159.5,318.9,162.3,323.1z"/>
	<path d="M109.2,325.3c-0.3,1.4-0.1,2.9,0.7,4.2c0.8,1.2,2.1,2.1,3.5,2.4c1.4,0.2,2.8,0,3.9-0.6l20-13.1c4.2-2.8,5.3-8.4,2.5-12.6
		L126.7,286c-1.2-1.8-3.4-2.7-5.5-2.3c-2.1,0.4-3.8,2-4.3,4.1v0.3c-0.1,0.6-0.1,1.3,0,1.9c1.8,11.7-0.6,23.6-6.9,33.6
		C109.7,324.1,109.4,324.7,109.2,325.3z"/>
	<path d="M139.8,272.6c-1.4-0.3-2.9-0.1-4.2,0.7c-1.3,0.8-2.1,2.1-2.4,3.5c-0.3,1.3,0,2.6,0.7,3.8l0.2,0l13.1,20
		c1.3,2,3.4,3.4,5.8,3.9c2.4,0.5,4.8,0,6.8-1.3l19.6-13.1c1.8-1.2,2.7-3.4,2.3-5.5c-0.4-2.1-2-3.8-4.1-4.3h-0.3
		c-0.6-0.1-1.3-0.1-1.9,0c-11.7,1.9-23.8-0.6-33.9-6.9C141,273.1,140.4,272.8,139.8,272.6z"/>
	<path d="M122.7,338.6c-1.8,1.2-2.7,3.4-2.3,5.5c0.4,2.1,2,3.8,4.1,4.3h0.3c0.6,0.1,1.2,0.1,1.9,0c11.7-1.9,23.8,0.6,33.9,6.9
		c0.5,0.3,1.1,0.6,1.7,0.7c2.1,0.5,4.3-0.4,5.5-2.1c1.2-1.7,1.3-4,0.2-5.8l-13.1-20c-2.8-4.2-8.4-5.3-12.6-2.6L122.7,338.6z"/>
	<path d="M153.3,321c3.7-1.2,5.7-5.2,4.4-8.9c-0.6-1.8-1.9-3.2-3.5-4.1c-1.7-0.8-3.6-0.9-5.4-0.3c-3.7,1.2-5.7,5.2-4.4,8.9
		C145.6,320.3,149.6,322.3,153.3,321z"/>
	<path d="M538.8,546.1c0.4-0.5,0.7-1.1,0.9-1.7c2.1-5.5,5.1-10.6,8.9-15.1c3.9-4.5,8.5-8.2,13.7-11c0.5-0.3,1-0.7,1.5-1.1
		c1.4-1.6,1.7-3.9,0.9-5.8c-0.9-1.9-2.8-3.2-5-3.1l0-0.3l-23.9,1.7c-2.4,0.2-4.7,1.3-6.2,3.2c-1.6,1.8-2.4,4.2-2.2,6.7l1.7,23.4
		c0.1,1.5,0.7,2.9,1.9,3.9c1.1,0.9,2.5,1.4,3.9,1.3c1.4-0.1,2.8-0.8,3.7-1.9L538.8,546.1z"/>
	<path d="M484.2,504.3l23.9-1.7c2.4-0.2,4.7-1.3,6.3-3.1c1.6-1.8,2.4-4.2,2.1-6.7l-1.7-23.4c-0.1-2.2-1.5-4.2-3.6-4.9
		c-2.1-0.7-4.4-0.1-5.9,1.6l-0.2,0.2c-0.4,0.5-0.7,1.1-0.9,1.7c-4.1,11.2-12.1,20.5-22.6,26.1c-0.5,0.3-1,0.7-1.5,1.1
		c-2,2.3-1.7,5.7,0.6,7.6C481.7,503.8,483,504.3,484.2,504.3z"/>
	<path d="M535.3,500.7l23.3-1.7c1.5,0,2.9-0.7,3.9-1.9c2-2.3,1.7-5.7-0.6-7.6l-0.2-0.2c-0.5-0.4-1.1-0.7-1.7-0.9
		c-11.2-4.1-20.5-12.1-26.1-22.6c-0.3-0.5-0.7-1-1.1-1.5c-1.6-1.4-3.9-1.7-5.8-0.8c-1.9,0.9-3.2,2.9-3.1,5l-0.1-0.1l1.7,23.9
		c0.2,2.4,1.3,4.7,3.1,6.3S532.8,501,535.3,500.7z"/>
	<path d="M510,546.4c0.3,0.5,0.7,1,1.1,1.5c1.6,1.4,3.9,1.8,5.8,0.9c2-0.9,3.2-2.8,3.3-4.9l-1.7-23.9c-0.2-2.4-1.3-4.7-3.1-6.3
		s-4.2-2.4-6.7-2.2l-23.4,1.7c-2.2,0.1-4.2,1.5-4.9,3.6s-0.1,4.4,1.6,5.9l0.2,0.2c0.5,0.4,1.1,0.7,1.7,0.9
		C495.1,527.9,504.4,536,510,546.4z"/>
	<path d="M529.1,507.4c0.4-1.8,0-3.7-1.1-5.3c-1.1-1.5-2.7-2.5-4.5-2.9c-3.8-0.7-7.5,1.8-8.2,5.6s1.8,7.5,5.6,8.2
		C524.7,513.7,528.4,511.2,529.1,507.4z"/>
	<path d="M243.1,228.2c1.5-1.6,1.9-3.9,1.1-5.9s-2.9-3.4-5.1-3.3l-23.9,1.7c-2.4,0.2-4.7,1.3-6.3,3.1c-1.6,1.8-2.4,4.2-2.2,6.7
		l1.7,23.4c0.1,1.5,0.7,2.9,1.9,3.9c2.3,2,5.7,1.7,7.6-0.6l0.2-0.2c0.4-0.5,0.7-1,0.9-1.6c4.1-11.2,12.2-20.5,22.6-26.1
		C242.1,229,242.6,228.6,243.1,228.2z"/>
	<path d="M161,205c-0.5,0.3-1.1,0.7-1.5,1.1c-0.9,1.1-1.4,2.5-1.3,3.9c0.1,1.4,0.8,2.8,1.9,3.7c1,1,2.3,1.5,3.5,1.5l23.9-1.7
		c2.4-0.2,4.7-1.3,6.3-3.1c1.6-1.8,2.4-4.2,2.1-6.7l-1.7-23.4c-0.1-1.5-0.7-2.9-1.9-3.9c-1.1-0.9-2.5-1.4-3.9-1.3
		c-1.4,0.1-2.8,0.8-3.7,1.9l-0.2,0.2c-0.4,0.5-0.7,1.1-0.9,1.7C179.5,190.1,171.4,199.4,161,205z"/>
	<path d="M203.2,179.4C203.2,179.4,203.2,179.4,203.2,179.4L203.2,179.4L203.2,179.4z"/>
	<path d="M241.1,200.1c-0.5-0.4-1.1-0.6-1.7-0.8c-11.2-4.1-20.5-12.2-26.1-22.6c-0.3-0.5-0.7-1-1.1-1.5c-1.1-0.9-2.5-1.4-4-1.3
		c-1.4,0.1-2.8,0.8-3.7,1.9c-0.9,1-1.3,2.3-1.3,3.6l1.7,23.8c0.2,2.4,1.3,4.7,3.2,6.2c1.8,1.6,4.2,2.4,6.7,2.2l23.3-1.7
		c2.2-0.1,4.1-1.6,4.8-3.7c0.7-2.1,0.1-4.4-1.6-5.9L241.1,200.1z"/>
	<path d="M189.3,257.5c0.3,0.5,0.7,1,1.1,1.5c1.6,1.5,3.9,1.9,5.9,1c2.1-0.9,3.3-2.9,3.3-5.1l-1.7-23.9c-0.2-2.4-1.3-4.7-3.2-6.2
		c-1.9-1.5-4.2-2.4-6.7-2.2l-23.4,1.7c-2.2,0.1-4.2,1.5-4.9,3.6c-0.7,2.1-0.1,4.4,1.6,5.9l0.2,0.2c0.5,0.4,1.1,0.7,1.7,0.9
		C174.4,239,183.7,247.1,189.3,257.5z"/>
	<path d="M195.5,213.2c-1.6,2.4-1.6,5.5,0,7.8c1.6,2.4,4.4,3.5,7.2,3c2.8-0.6,5-2.8,5.5-5.5c0.8-3.9-1.7-7.6-5.5-8.3
		C199.9,209.7,197.1,210.8,195.5,213.2z"/>
	<path d="M418.7,610.8c0.6-0.2,1.1-0.5,1.6-0.9c9.3-7.4,21-11.2,32.8-10.7c0.6,0,1.2,0,1.8-0.2c2.1-0.6,3.5-2.4,3.8-4.5
		c0.3-2.2-0.8-4.3-2.7-5.4l-21.3-10.9c-2.1-1.1-4.6-1.3-6.9-0.5c-2.3,0.7-4.2,2.4-5.3,4.5l-10.6,20.9c-1.1,2-0.8,4.4,0.6,6.1
		c1.4,1.7,3.8,2.4,5.9,1.6H418.7z"/>
	<path d="M437.7,528.9c-0.4-1.4-1.4-2.5-2.7-3.2s-2.8-0.8-4.2-0.3h-0.3c-0.6,0.2-1.1,0.6-1.6,0.9c-9.2,7.4-20.8,11.2-32.7,10.7
		c-0.6,0-1.2,0.1-1.8,0.2c-2.8,0.9-4.4,4-3.5,6.8c0.4,1.2,1.3,2.3,2.4,2.9l-0.1,0.2l21.3,10.9c2.1,1.1,4.6,1.3,6.9,0.6
		s4.2-2.4,5.3-4.5l10.6-20.9C438,531.9,438.2,530.3,437.7,528.9z"/>
	<path d="M438.8,570.2l20.9,10.6c2,1.1,4.4,0.8,6.1-0.6s2.4-3.8,1.6-5.9V574c-0.2-0.6-0.6-1.1-0.9-1.6c-3.7-4.6-6.5-9.8-8.3-15.4
		c-1.8-5.6-2.7-11.5-2.4-17.4c0-0.6,0-1.3-0.2-1.9c-0.4-1.4-1.4-2.5-2.7-3.2s-2.8-0.8-4.1-0.3c-1.3,0.4-2.3,1.3-3,2.4l-0.2,0.1
		L434.8,558c-1.1,2.2-1.3,4.7-0.5,6.9C435.1,567.2,436.7,569.1,438.8,570.2z"/>
	<path d="M393.5,598.4c0.6,2,2.4,3.5,4.6,3.7c2.1,0.2,4.2-0.8,5.3-2.7l0.2,0.1l10.8-21.3c1.1-2.1,1.3-4.6,0.5-6.9
		c-0.7-2.3-2.4-4.2-4.5-5.3l-20.9-10.6c-2-1.1-4.4-0.9-6.2,0.6c-1.7,1.5-2.4,3.9-1.6,6v0.3c0.2,0.6,0.6,1.1,0.9,1.6
		c7.4,9.2,11.2,20.9,10.7,32.7C393.3,597.2,393.3,597.8,393.5,598.4z"/>
	<path d="M421.5,561.6c-2.6,1.2-4.2,3.9-4,6.7c0.2,2.9,2,5.3,4.7,6.3c2.7,0.9,5.7,0.1,7.6-2c2.5-2.8,2.3-7.2-0.5-9.8
		C427.2,560.9,424.1,560.4,421.5,561.6z"/>
	<path d="M285.6,194.4c0.4,1.4,1.4,2.5,2.7,3.1c1.3,0.6,2.8,0.8,4.1,0.3h0.3c0.6-0.2,1.1-0.5,1.6-0.9c9.2-7.4,20.9-11.2,32.7-10.7
		c0.6,0,1.2,0,1.8-0.2c2-0.7,3.5-2.4,3.7-4.6s-0.8-4.2-2.7-5.2l0.4-0.1l-21.3-10.9c-2.1-1.1-4.6-1.3-6.9-0.5
		c-2.3,0.7-4.2,2.4-5.3,4.5L286,190.1C285.3,191.4,285.1,193,285.6,194.4z"/>
	<path d="M270.4,123.9c-0.6,0-1.3,0.1-1.9,0.3c-2.8,0.9-4.4,4-3.5,6.8c0.5,1.3,1.3,2.3,2.4,3l21.3,10.9c2.1,1.1,4.6,1.3,6.9,0.5
		c2.3-0.7,4.2-2.4,5.3-4.5l10.6-20.9c1.1-2,0.8-4.4-0.6-6.1c-1.5-1.7-3.8-2.4-5.9-1.6h-0.3c-0.6,0.2-1.1,0.6-1.6,0.9
		C293.9,120.6,282.2,124.4,270.4,123.9z"/>
	<path d="M329.7,124.8c-0.4-1.4-1.4-2.5-2.7-3.2c-1.3-0.7-2.8-0.8-4.2-0.3c-1.2,0.4-2.3,1.3-2.9,2.4h-0.1L309,145
		c-1.1,2.1-1.3,4.6-0.5,6.9s2.4,4.2,4.5,5.3l20.9,10.6c2,1.1,4.4,0.8,6.1-0.6c1.7-1.5,2.4-3.8,1.6-5.9V161c-0.3-0.6-0.6-1.1-1-1.6
		c-7.4-9.2-11.2-20.9-10.7-32.7C329.9,126.1,329.9,125.4,329.7,124.8z"/>
	<path d="M284.7,153l-20.9-10.6c-1.3-0.7-2.9-0.9-4.3-0.4c-2.8,0.9-4.4,4-3.5,6.9v0.3c0.2,0.6,0.6,1.1,0.9,1.6
		c7.4,9.2,11.2,20.9,10.7,32.7c0,0.6,0,1.2,0.2,1.8c0.4,1.4,1.4,2.5,2.7,3.2c1.3,0.7,2.8,0.8,4.1,0.3c1.3-0.4,2.3-1.3,3-2.4l0.2,0.1
		l10.9-21.3c1.1-2.1,1.3-4.6,0.5-6.9C288.5,156,286.8,154.1,284.7,153z"/>
	<path d="M304,159.7c2.5-2.9,2.3-7.2-0.5-9.8c-2.1-1.9-5.2-2.4-7.8-1.2c-2.6,1.2-4.2,3.9-4,6.7c0.2,2.9,2,5.3,4.7,6.3
		C299.1,162.6,302.1,161.8,304,159.7z"/>
</g>
</svg>
